<svg width="600" height="400" viewBox="0 0 600 400" xmlns="http://www.w3.org/2000/svg">
  <defs>
    <linearGradient id="bg" x1="0" y1="0" x2="1" y2="1">
      <stop offset="0" stop-color="#f59e0b"/>
      <stop offset="1" stop-color="#ef4444"/>
    </linearGradient>
  </defs>
  <rect width="600" height="400" fill="url(#bg)"/>
  <circle cx="530" cy="60" r="90" fill="rgba(255,255,255,0.08)"/>
  <circle cx="60" cy="360" r="110" fill="rgba(255,255,255,0.07)"/>
  <g transform="translate(300,250)">
    <rect x="-150" y="-20" width="300" height="150" rx="14" fill="#7c2d12"/>
    <rect x="-150" y="-70" width="300" height="52" rx="14" fill="#0c2549"/>
    <path d="M-150,-70 h300 l-28,20 h-52 l-14,22 h-52 l-14,-22 h-52 l-14,22 h-52 l-14,-22 h-52 l-28,-20 z" fill="#fbbf24" opacity="0.95"/>
    <rect x="-150" y="130" width="300" height="8" rx="4" fill="#451a03"/>
    <rect x="-90" y="12" width="44" height="118" rx="6" fill="#9a3412"/>
    <rect x="46" y="12" width="44" height="118" rx="6" fill="#9a3412"/>
  </g>
  <g transform="translate(300,150)">
    <ellipse cx="0" cy="18" rx="86" ry="20" fill="rgba(0,0,0,0.25)"/>
    <rect x="-72" y="-34" width="144" height="52" rx="22" fill="#fde68a"/>
    <rect x="-52" y="-14" width="104" height="34" rx="17" fill="#dc2626"/>
    <circle cx="-34" cy="8" r="6" fill="#fff"/>
    <circle cx="6" cy="8" r="6" fill="#fff"/>
    <path d="M-60,-20 q10,-18 34,-20 q-8,14 -26,16 z" fill="#166534"/>
    <path d="M60,-20 q-10,-18 -34,-20 q8,14 26,16 z" fill="#166534"/>
    <path d="M-16,-40 q0,-26 16,-26 q16,0 16,26 q0,12 -16,12 q-16,0 -16,-12 z" fill="#dc2626"/>
    <path d="M-28,-30 l-16,-8" stroke="#fbbf24" stroke-width="5" stroke-linecap="round"/>
    <path d="M28,-30 l16,-8" stroke="#fbbf24" stroke-width="5" stroke-linecap="round"/>
    <g opacity="0.75">
      <path d="M-100,-16 q-6,-10 -2,-18" stroke="#fff" stroke-width="4" fill="none" stroke-linecap="round"/>
      <path d="M-96,-24 q-4,-8 0,-14" stroke="#fff" stroke-width="3" fill="none" stroke-linecap="round"/>
      <path d="M100,-16 q6,-10 2,-18" stroke="#fff" stroke-width="4" fill="none" stroke-linecap="round"/>
      <path d="M96,-24 q4,-8 0,-14" stroke="#fff" stroke-width="3" fill="none" stroke-linecap="round"/>
    </g>
  </g>
</svg>